solid OpenSCAD_Model
  facet normal 0 -1 0
    outer loop
      vertex -1.04528 -9.94522 -50
      vertex 1.04528 -9.94522 50
      vertex -1.04528 -9.94522 50
    endloop
  endfacet
  facet normal 0 -1 -0
    outer loop
      vertex 1.04528 -9.94522 50
      vertex -1.04528 -9.94522 -50
      vertex 1.04528 -9.94522 -50
    endloop
  endfacet
  facet normal 0.951055 -0.309021 0
    outer loop
      vertex 9.13545 -4.06737 50
      vertex 9.78148 -2.07912 -50
      vertex 9.78148 -2.07912 50
    endloop
  endfacet
  facet normal 0.951055 -0.309021 0
    outer loop
      vertex 9.78148 -2.07912 -50
      vertex 9.13545 -4.06737 50
      vertex 9.13545 -4.06737 -50
    endloop
  endfacet
  facet normal 0 0 1
    outer loop
      vertex 20 40 50
      vertex 10 0 50
      vertex 20 0 50
    endloop
  endfacet
  facet normal -0 0 1
    outer loop
      vertex 8 0 50
      vertex 9.78148 -2.07912 50
      vertex 10 0 50
    endloop
  endfacet
  facet normal 0 0 1
    outer loop
      vertex 9.78148 -2.07912 50
      vertex 7.76753 -1.91453 50
      vertex 9.13545 -4.06737 50
    endloop
  endfacet
  facet normal -0 0 1
    outer loop
      vertex -1.72909 8.13473 50
      vertex 10 0 50
      vertex 20 40 50
    endloop
  endfacet
  facet normal 0 0 1
    outer loop
      vertex 9.78148 -2.07912 50
      vertex 8 0 50
      vertex 7.76753 -1.91453 50
    endloop
  endfacet
  facet normal 0 0 1
    outer loop
      vertex 10 0 50
      vertex -1.72909 8.13473 50
      vertex 8 0 50
    endloop
  endfacet
  facet normal 0 0 1
    outer loop
      vertex 8 0 50
      vertex -0.437048 4.15823 50
      vertex 0 0 50
    endloop
  endfacet
  facet normal 0 0 1
    outer loop
      vertex 8 0 50
      vertex -1.72909 8.13473 50
      vertex -0.437048 4.15823 50
    endloop
  endfacet
  facet normal 0 0 1
    outer loop
      vertex 20 40 50
      vertex -3.81966 11.7557 50
      vertex -1.72909 8.13473 50
    endloop
  endfacet
  facet normal 0 0 1
    outer loop
      vertex 20 40 50
      vertex -6.61739 14.8629 50
      vertex -3.81966 11.7557 50
    endloop
  endfacet
  facet normal 0 0 1
    outer loop
      vertex 20 40 50
      vertex -10 17.3205 50
      vertex -6.61739 14.8629 50
    endloop
  endfacet
  facet normal -0 0 1
    outer loop
      vertex -20 40 50
      vertex -10 17.3205 50
      vertex 20 40 50
    endloop
  endfacet
  facet normal 0 0 1
    outer loop
      vertex -10 17.3205 50
      vertex -20 40 50
      vertex -13.8197 19.0211 50
    endloop
  endfacet
  facet normal 0 0 1
    outer loop
      vertex -13.8197 19.0211 50
      vertex -20 40 50
      vertex -17.9094 19.8904 50
    endloop
  endfacet
  facet normal 0 0 1
    outer loop
      vertex -17.9094 19.8904 50
      vertex -20 40 50
      vertex -20 19.8904 50
    endloop
  endfacet
  facet normal -0 0 1
    outer loop
      vertex 7.08365 -3.71778 50
      vertex 9.13545 -4.06737 50
      vertex 7.76753 -1.91453 50
    endloop
  endfacet
  facet normal 0 0 1
    outer loop
      vertex 9.13545 -4.06737 50
      vertex 7.08365 -3.71778 50
      vertex 8.09017 -5.87785 50
    endloop
  endfacet
  facet normal -0 0 1
    outer loop
      vertex 5.98809 -5.30498 50
      vertex 8.09017 -5.87785 50
      vertex 7.08365 -3.71778 50
    endloop
  endfacet
  facet normal 0 0 1
    outer loop
      vertex 8.09017 -5.87785 50
      vertex 5.98809 -5.30498 50
      vertex 6.69131 -7.43145 50
    endloop
  endfacet
  facet normal -0 0 1
    outer loop
      vertex 4.54452 -6.58387 50
      vertex 6.69131 -7.43145 50
      vertex 5.98809 -5.30498 50
    endloop
  endfacet
  facet normal 0 0 1
    outer loop
      vertex 6.69131 -7.43145 50
      vertex 4.54452 -6.58387 50
      vertex 5 -8.66025 50
    endloop
  endfacet
  facet normal -0 0 1
    outer loop
      vertex 2.83684 -7.48013 50
      vertex 5 -8.66025 50
      vertex 4.54452 -6.58387 50
    endloop
  endfacet
  facet normal 0 0 1
    outer loop
      vertex 5 -8.66025 50
      vertex 2.83684 -7.48013 50
      vertex 3.09017 -9.51056 50
    endloop
  endfacet
  facet normal -0 0 1
    outer loop
      vertex 0.964293 -7.94167 50
      vertex 3.09017 -9.51056 50
      vertex 2.83684 -7.48013 50
    endloop
  endfacet
  facet normal 0 0 1
    outer loop
      vertex 3.09017 -9.51056 50
      vertex 0.964293 -7.94167 50
      vertex 1.04528 -9.94522 50
    endloop
  endfacet
  facet normal -0 0 1
    outer loop
      vertex -0.964293 -7.94167 50
      vertex 1.04528 -9.94522 50
      vertex 0.964293 -7.94167 50
    endloop
  endfacet
  facet normal 0 0 1
    outer loop
      vertex -0.964293 -7.94167 50
      vertex -1.04528 -9.94522 50
      vertex 1.04528 -9.94522 50
    endloop
  endfacet
  facet normal 0 0 1
    outer loop
      vertex -1.72909 -8.13473 50
      vertex -0.964293 -7.94167 50
      vertex -1.6143 -7.78146 50
    endloop
  endfacet
  facet normal 0 0 1
    outer loop
      vertex -0.964293 -7.94167 50
      vertex -1.72909 -8.13473 50
      vertex -1.04528 -9.94522 50
    endloop
  endfacet
  facet normal 0 0 1
    outer loop
      vertex -1.04528 -9.94522 50
      vertex -1.72909 -8.13473 50
      vertex -2.58538 -9.61786 50
    endloop
  endfacet
  facet normal 0.994522 -0.104526 0
    outer loop
      vertex 9.78148 -2.07912 50
      vertex 10 0 -50
      vertex 10 0 50
    endloop
  endfacet
  facet normal 0.994522 -0.104526 0
    outer loop
      vertex 10 0 -50
      vertex 9.78148 -2.07912 50
      vertex 9.78148 -2.07912 -50
    endloop
  endfacet
  facet normal 0 0 -1
    outer loop
      vertex 9.78148 -2.07912 -50
      vertex 7.76753 -1.91453 -50
      vertex 8 0 -50
    endloop
  endfacet
  facet normal 0 0 -1
    outer loop
      vertex 9.13545 -4.06737 -50
      vertex 7.08365 -3.71778 -50
      vertex 7.76753 -1.91453 -50
    endloop
  endfacet
  facet normal 0 0 -1
    outer loop
      vertex 5.98809 -5.30498 -50
      vertex 8.09017 -5.87785 -50
      vertex 6.69131 -7.43145 -50
    endloop
  endfacet
  facet normal 0 0 -1
    outer loop
      vertex 8.09017 -5.87785 -50
      vertex 5.98809 -5.30498 -50
      vertex 7.08365 -3.71778 -50
    endloop
  endfacet
  facet normal 0 0 -1
    outer loop
      vertex 4.54452 -6.58387 -50
      vertex 6.69131 -7.43145 -50
      vertex 5 -8.66025 -50
    endloop
  endfacet
  facet normal 0 0 -1
    outer loop
      vertex 6.69131 -7.43145 -50
      vertex 4.54452 -6.58387 -50
      vertex 5.98809 -5.30498 -50
    endloop
  endfacet
  facet normal 0 0 -1
    outer loop
      vertex 2.83684 -7.48013 -50
      vertex 5 -8.66025 -50
      vertex 3.09017 -9.51056 -50
    endloop
  endfacet
  facet normal 0 0 -1
    outer loop
      vertex 5 -8.66025 -50
      vertex 2.83684 -7.48013 -50
      vertex 4.54452 -6.58387 -50
    endloop
  endfacet
  facet normal 0 0 -1
    outer loop
      vertex 0.964293 -7.94167 -50
      vertex 3.09017 -9.51056 -50
      vertex 1.04528 -9.94522 -50
    endloop
  endfacet
  facet normal 0 0 -1
    outer loop
      vertex 3.09017 -9.51056 -50
      vertex 0.964293 -7.94167 -50
      vertex 2.83684 -7.48013 -50
    endloop
  endfacet
  facet normal 0 0 -1
    outer loop
      vertex 1.04528 -9.94522 -50
      vertex -0.964293 -7.94167 -50
      vertex 0.964293 -7.94167 -50
    endloop
  endfacet
  facet normal 0 0 -1
    outer loop
      vertex -1.04528 -9.94522 -50
      vertex -0.964293 -7.94167 -50
      vertex 1.04528 -9.94522 -50
    endloop
  endfacet
  facet normal 0 0 -1
    outer loop
      vertex -3.09017 -9.51056 -50
      vertex -0.964293 -7.94167 -50
      vertex -1.04528 -9.94522 -50
    endloop
  endfacet
  facet normal -0 0 -1
    outer loop
      vertex -0.964293 -7.94167 -50
      vertex -3.09017 -9.51056 -50
      vertex -2.83684 -7.48013 -50
    endloop
  endfacet
  facet normal 0 0 -1
    outer loop
      vertex -5 -8.66025 -50
      vertex -2.83684 -7.48013 -50
      vertex -3.09017 -9.51056 -50
    endloop
  endfacet
  facet normal -0 0 -1
    outer loop
      vertex -2.83684 -7.48013 -50
      vertex -5 -8.66025 -50
      vertex -4.54452 -6.58387 -50
    endloop
  endfacet
  facet normal 0 0 -1
    outer loop
      vertex -6.69131 -7.43145 -50
      vertex -4.54452 -6.58387 -50
      vertex -5 -8.66025 -50
    endloop
  endfacet
  facet normal -0 0 -1
    outer loop
      vertex -4.54452 -6.58387 -50
      vertex -6.69131 -7.43145 -50
      vertex -5.98809 -5.30498 -50
    endloop
  endfacet
  facet normal 0 0 -1
    outer loop
      vertex -8.09017 -5.87785 -50
      vertex -5.98809 -5.30498 -50
      vertex -6.69131 -7.43145 -50
    endloop
  endfacet
  facet normal -0 0 -1
    outer loop
      vertex -5.98809 -5.30498 -50
      vertex -8.09017 -5.87785 -50
      vertex -7.08365 -3.71778 -50
    endloop
  endfacet
  facet normal -0 0 -1
    outer loop
      vertex -7.08365 -3.71778 -50
      vertex -9.13545 -4.06737 -50
      vertex -7.76753 -1.91453 -50
    endloop
  endfacet
  facet normal 0 0 -1
    outer loop
      vertex -9.13545 -4.06737 -50
      vertex -7.08365 -3.71778 -50
      vertex -8.09017 -5.87785 -50
    endloop
  endfacet
  facet normal 0 0 -1
    outer loop
      vertex 10 0 -50
      vertex 20 40 -50
      vertex 20 0 -50
    endloop
  endfacet
  facet normal 0 0 -1
    outer loop
      vertex 7.76753 -1.91453 -50
      vertex 9.78148 -2.07912 -50
      vertex 9.13545 -4.06737 -50
    endloop
  endfacet
  facet normal 0 0 -1
    outer loop
      vertex 7.08365 -3.71778 -50
      vertex 9.13545 -4.06737 -50
      vertex 8.09017 -5.87785 -50
    endloop
  endfacet
  facet normal 0 0 -1
    outer loop
      vertex 9.78148 -2.07912 -50
      vertex 8 0 -50
      vertex 10 0 -50
    endloop
  endfacet
  facet normal 0 0 -1
    outer loop
      vertex 10 0 -50
      vertex 8 0 -50
      vertex 20 40 -50
    endloop
  endfacet
  facet normal 0 0 -1
    outer loop
      vertex -8 0 -50
      vertex 20 40 -50
      vertex 8 0 -50
    endloop
  endfacet
  facet normal 0 0 -1
    outer loop
      vertex -9.78148 -2.07912 -50
      vertex -7.76753 -1.91453 -50
      vertex -9.13545 -4.06737 -50
    endloop
  endfacet
  facet normal -0 0 -1
    outer loop
      vertex -7.76753 -1.91453 -50
      vertex -9.78148 -2.07912 -50
      vertex -8 0 -50
    endloop
  endfacet
  facet normal 0 0 -1
    outer loop
      vertex -10 0 -50
      vertex -8 0 -50
      vertex -9.78148 -2.07912 -50
    endloop
  endfacet
  facet normal 0 0 -1
    outer loop
      vertex -20 40 -50
      vertex -8 0 -50
      vertex -10 0 -50
    endloop
  endfacet
  facet normal 0 0 -1
    outer loop
      vertex -20 40 -50
      vertex -10 0 -50
      vertex -20 0 -50
    endloop
  endfacet
  facet normal 0 0 -1
    outer loop
      vertex -8 0 -50
      vertex -20 40 -50
      vertex 20 40 -50
    endloop
  endfacet
  facet normal 0.207914 -0.978147 0
    outer loop
      vertex 1.04528 -9.94522 -50
      vertex 3.09017 -9.51056 50
      vertex 1.04528 -9.94522 50
    endloop
  endfacet
  facet normal 0.207914 -0.978147 0
    outer loop
      vertex 3.09017 -9.51056 50
      vertex 1.04528 -9.94522 -50
      vertex 3.09017 -9.51056 -50
    endloop
  endfacet
  facet normal 0.866026 -0.5 0
    outer loop
      vertex 8.09017 -5.87785 50
      vertex 9.13545 -4.06737 -50
      vertex 9.13545 -4.06737 50
    endloop
  endfacet
  facet normal 0.866026 -0.5 0
    outer loop
      vertex 9.13545 -4.06737 -50
      vertex 8.09017 -5.87785 50
      vertex 8.09017 -5.87785 -50
    endloop
  endfacet
  facet normal -0.866026 -0.5 0
    outer loop
      vertex -8.09017 -5.87785 -50
      vertex -9.13545 -4.06737 40
      vertex -9.13545 -4.06737 -50
    endloop
  endfacet
  facet normal -0.866026 -0.5 0
    outer loop
      vertex -9.13545 -4.06737 40
      vertex -8.09017 -5.87785 -50
      vertex -8.09017 -5.87785 40
    endloop
  endfacet
  facet normal 0.587783 -0.809019 0
    outer loop
      vertex 5 -8.66025 -50
      vertex 6.69131 -7.43145 50
      vertex 5 -8.66025 50
    endloop
  endfacet
  facet normal 0.587783 -0.809019 0
    outer loop
      vertex 6.69131 -7.43145 50
      vertex 5 -8.66025 -50
      vertex 6.69131 -7.43145 -50
    endloop
  endfacet
  facet normal 0.406736 -0.913546 0
    outer loop
      vertex 3.09017 -9.51056 -50
      vertex 5 -8.66025 50
      vertex 3.09017 -9.51056 50
    endloop
  endfacet
  facet normal 0.406736 -0.913546 0
    outer loop
      vertex 5 -8.66025 50
      vertex 3.09017 -9.51056 -50
      vertex 5 -8.66025 -50
    endloop
  endfacet
  facet normal -0.743147 -0.669129 0
    outer loop
      vertex -6.69131 -7.43145 -50
      vertex -8.09017 -5.87785 40
      vertex -8.09017 -5.87785 -50
    endloop
  endfacet
  facet normal -0.743147 -0.669129 0
    outer loop
      vertex -8.09017 -5.87785 40
      vertex -6.69131 -7.43145 -50
      vertex -6.69131 -7.43145 40
    endloop
  endfacet
  facet normal -0.951055 -0.309021 0
    outer loop
      vertex -9.13545 -4.06737 -50
      vertex -9.78148 -2.07912 40
      vertex -9.78148 -2.07912 -50
    endloop
  endfacet
  facet normal -0.951055 -0.309021 0
    outer loop
      vertex -9.78148 -2.07912 40
      vertex -9.13545 -4.06737 -50
      vertex -9.13545 -4.06737 40
    endloop
  endfacet
  facet normal -0.994522 -0.104526 0
    outer loop
      vertex -9.78148 -2.07912 -50
      vertex -10 0 40
      vertex -10 0 -50
    endloop
  endfacet
  facet normal -0.994522 -0.104526 0
    outer loop
      vertex -10 0 40
      vertex -9.78148 -2.07912 -50
      vertex -9.78148 -2.07912 40
    endloop
  endfacet
  facet normal 0.743147 -0.669129 0
    outer loop
      vertex 6.69131 -7.43145 50
      vertex 8.09017 -5.87785 -50
      vertex 8.09017 -5.87785 50
    endloop
  endfacet
  facet normal 0.743147 -0.669129 0
    outer loop
      vertex 8.09017 -5.87785 -50
      vertex 6.69131 -7.43145 50
      vertex 6.69131 -7.43145 -50
    endloop
  endfacet
  facet normal -0.406736 -0.913546 0
    outer loop
      vertex -5 -8.66025 -50
      vertex -3.09017 -9.51056 40
      vertex -5 -8.66025 40
    endloop
  endfacet
  facet normal -0.406736 -0.913546 -0
    outer loop
      vertex -3.09017 -9.51056 40
      vertex -5 -8.66025 -50
      vertex -3.09017 -9.51056 -50
    endloop
  endfacet
  facet normal -0.587783 -0.809019 0
    outer loop
      vertex -6.69131 -7.43145 -50
      vertex -5 -8.66025 40
      vertex -6.69131 -7.43145 40
    endloop
  endfacet
  facet normal -0.587783 -0.809019 -0
    outer loop
      vertex -5 -8.66025 40
      vertex -6.69131 -7.43145 -50
      vertex -5 -8.66025 -50
    endloop
  endfacet
  facet normal -0.207918 -0.978146 -0
    outer loop
      vertex -3.09017 -9.51056 40
      vertex -3.09017 -9.51056 -50
      vertex -2.58538 -9.61786 40
    endloop
  endfacet
  facet normal -0.207913 -0.978147 0
    outer loop
      vertex -2.58538 -9.61786 40
      vertex -1.04528 -9.94522 50
      vertex -2.58538 -9.61786 50
    endloop
  endfacet
  facet normal -0.207914 -0.978147 -2.48502e-08
    outer loop
      vertex -1.04528 -9.94522 -50
      vertex -2.58538 -9.61786 40
      vertex -3.09017 -9.51056 -50
    endloop
  endfacet
  facet normal -0.207913 -0.978147 0
    outer loop
      vertex -2.58538 -9.61786 40
      vertex -1.04528 -9.94522 -50
      vertex -1.04528 -9.94522 50
    endloop
  endfacet
  facet normal 0 1 -0
    outer loop
      vertex 0.964293 -7.94167 -50
      vertex -0.964293 -7.94167 50
      vertex 0.964293 -7.94167 50
    endloop
  endfacet
  facet normal 0 1 0
    outer loop
      vertex -0.964293 -7.94167 50
      vertex 0.964293 -7.94167 -50
      vertex -0.964293 -7.94167 -50
    endloop
  endfacet
  facet normal -0.992709 0.120539 0
    outer loop
      vertex 7.76753 -1.91453 -50
      vertex 8 0 50
      vertex 8 0 -50
    endloop
  endfacet
  facet normal -0.992709 0.120539 0
    outer loop
      vertex 8 0 50
      vertex 7.76753 -1.91453 -50
      vertex 7.76753 -1.91453 50
    endloop
  endfacet
  facet normal 0.992709 0.120539 0
    outer loop
      vertex -7.76753 -1.91453 40
      vertex -8 0 -50
      vertex -8 0 40
    endloop
  endfacet
  facet normal 0.992709 0.120539 0
    outer loop
      vertex -8 0 -50
      vertex -7.76753 -1.91453 40
      vertex -7.76753 -1.91453 -50
    endloop
  endfacet
  facet normal -0.663122 0.748511 0
    outer loop
      vertex 5.98809 -5.30498 -50
      vertex 4.54452 -6.58387 50
      vertex 5.98809 -5.30498 50
    endloop
  endfacet
  facet normal -0.663122 0.748511 0
    outer loop
      vertex 4.54452 -6.58387 50
      vertex 5.98809 -5.30498 -50
      vertex 4.54452 -6.58387 -50
    endloop
  endfacet
  facet normal -0.822985 0.568063 0
    outer loop
      vertex 5.98809 -5.30498 -50
      vertex 7.08365 -3.71778 50
      vertex 7.08365 -3.71778 -50
    endloop
  endfacet
  facet normal -0.822985 0.568063 0
    outer loop
      vertex 7.08365 -3.71778 50
      vertex 5.98809 -5.30498 -50
      vertex 5.98809 -5.30498 50
    endloop
  endfacet
  facet normal 0.663122 0.748511 -0
    outer loop
      vertex -4.54452 -6.58387 -50
      vertex -5.98809 -5.30498 40
      vertex -4.54452 -6.58387 40
    endloop
  endfacet
  facet normal 0.663122 0.748511 0
    outer loop
      vertex -5.98809 -5.30498 40
      vertex -4.54452 -6.58387 -50
      vertex -5.98809 -5.30498 -50
    endloop
  endfacet
  facet normal 0.935017 0.354604 0
    outer loop
      vertex -7.08365 -3.71778 40
      vertex -7.76753 -1.91453 -50
      vertex -7.76753 -1.91453 40
    endloop
  endfacet
  facet normal 0.935017 0.354604 0
    outer loop
      vertex -7.76753 -1.91453 -50
      vertex -7.08365 -3.71778 40
      vertex -7.08365 -3.71778 -50
    endloop
  endfacet
  facet normal 0.822985 0.568063 0
    outer loop
      vertex -5.98809 -5.30498 40
      vertex -7.08365 -3.71778 -50
      vertex -7.08365 -3.71778 40
    endloop
  endfacet
  facet normal 0.822985 0.568063 0
    outer loop
      vertex -7.08365 -3.71778 -50
      vertex -5.98809 -5.30498 40
      vertex -5.98809 -5.30498 -50
    endloop
  endfacet
  facet normal -0.239315 0.970942 0
    outer loop
      vertex 2.83684 -7.48013 -50
      vertex 0.964293 -7.94167 50
      vertex 2.83684 -7.48013 50
    endloop
  endfacet
  facet normal -0.239315 0.970942 0
    outer loop
      vertex 0.964293 -7.94167 50
      vertex 2.83684 -7.48013 -50
      vertex 0.964293 -7.94167 -50
    endloop
  endfacet
  facet normal -0.935017 0.354604 0
    outer loop
      vertex 7.08365 -3.71778 -50
      vertex 7.76753 -1.91453 50
      vertex 7.76753 -1.91453 -50
    endloop
  endfacet
  facet normal -0.935017 0.354604 0
    outer loop
      vertex 7.76753 -1.91453 50
      vertex 7.08365 -3.71778 -50
      vertex 7.08365 -3.71778 50
    endloop
  endfacet
  facet normal -0.464723 0.885456 0
    outer loop
      vertex 4.54452 -6.58387 -50
      vertex 2.83684 -7.48013 50
      vertex 4.54452 -6.58387 50
    endloop
  endfacet
  facet normal -0.464723 0.885456 0
    outer loop
      vertex 2.83684 -7.48013 50
      vertex 4.54452 -6.58387 -50
      vertex 2.83684 -7.48013 -50
    endloop
  endfacet
  facet normal 0.464723 0.885456 -0
    outer loop
      vertex -2.83684 -7.48013 -50
      vertex -4.54452 -6.58387 40
      vertex -2.83684 -7.48013 40
    endloop
  endfacet
  facet normal 0.464723 0.885456 0
    outer loop
      vertex -4.54452 -6.58387 40
      vertex -2.83684 -7.48013 -50
      vertex -4.54452 -6.58387 -50
    endloop
  endfacet
  facet normal 0.239312 0.970943 0
    outer loop
      vertex -0.964293 -7.94167 50
      vertex -1.6143 -7.78146 40
      vertex -1.6143 -7.78146 50
    endloop
  endfacet
  facet normal 0.239312 0.970943 -0
    outer loop
      vertex -0.964293 -7.94167 -50
      vertex -1.6143 -7.78146 40
      vertex -0.964293 -7.94167 50
    endloop
  endfacet
  facet normal 0.239316 0.970942 3.0673e-08
    outer loop
      vertex -0.964293 -7.94167 -50
      vertex -2.83684 -7.48013 40
      vertex -1.6143 -7.78146 40
    endloop
  endfacet
  facet normal 0.239315 0.970942 0
    outer loop
      vertex -2.83684 -7.48013 40
      vertex -0.964293 -7.94167 -50
      vertex -2.83684 -7.48013 -50
    endloop
  endfacet
  facet normal -1 0 0
    outer loop
      vertex -20 40 -50
      vertex -20 19.8904 40
      vertex -20 40 50
    endloop
  endfacet
  facet normal -1 0 0
    outer loop
      vertex -20 0 -50
      vertex -20 19.8904 40
      vertex -20 40 -50
    endloop
  endfacet
  facet normal -1 -0 0
    outer loop
      vertex -20 19.8904 40
      vertex -20 0 -50
      vertex -20 0 40
    endloop
  endfacet
  facet normal -1 -0 0
    outer loop
      vertex -20 40 50
      vertex -20 19.8904 40
      vertex -20 19.8904 50
    endloop
  endfacet
  facet normal 1 -0 0
    outer loop
      vertex 20 0 50
      vertex 20 40 -50
      vertex 20 40 50
    endloop
  endfacet
  facet normal 1 0 0
    outer loop
      vertex 20 40 -50
      vertex 20 0 50
      vertex 20 0 -50
    endloop
  endfacet
  facet normal 0 -1 0
    outer loop
      vertex 10 0 -50
      vertex 20 0 50
      vertex 10 0 50
    endloop
  endfacet
  facet normal 0 -1 -0
    outer loop
      vertex 20 0 50
      vertex 10 0 -50
      vertex 20 0 -50
    endloop
  endfacet
  facet normal 0 -1 0
    outer loop
      vertex -20 0 -50
      vertex -10 0 40
      vertex -20 0 40
    endloop
  endfacet
  facet normal 0 -1 -0
    outer loop
      vertex -10 0 40
      vertex -20 0 -50
      vertex -10 0 -50
    endloop
  endfacet
  facet normal 0 -1 0
    outer loop
      vertex -8 0 40
      vertex -8 0 -50
      vertex 0 0 40
    endloop
  endfacet
  facet normal 0 -1 0
    outer loop
      vertex 0 0 40
      vertex 8 0 50
      vertex 0 0 50
    endloop
  endfacet
  facet normal 0 -1 0
    outer loop
      vertex 8 0 -50
      vertex 0 0 40
      vertex -8 0 -50
    endloop
  endfacet
  facet normal 0 -1 0
    outer loop
      vertex 0 0 40
      vertex 8 0 -50
      vertex 8 0 50
    endloop
  endfacet
  facet normal 0 1 -0
    outer loop
      vertex 20 40 -50
      vertex -20 40 50
      vertex 20 40 50
    endloop
  endfacet
  facet normal 0 1 0
    outer loop
      vertex -20 40 50
      vertex 20 40 -50
      vertex -20 40 -50
    endloop
  endfacet
  facet normal 0.994522 0.104529 0
    outer loop
      vertex 0 0 60
      vertex -0.437048 4.15823 50
      vertex -0.437048 4.15823 60
    endloop
  endfacet
  facet normal 0.994522 0.104529 0
    outer loop
      vertex -0.437048 4.15823 50
      vertex 0 0 60
      vertex 0 0 50
    endloop
  endfacet
  facet normal -0.994523 0.104517 0
    outer loop
      vertex -40 0 40
      vertex -39.563 4.15823 60
      vertex -39.563 4.15823 40
    endloop
  endfacet
  facet normal -0.994523 0.104517 0
    outer loop
      vertex -39.563 4.15823 60
      vertex -40 0 40
      vertex -40 0 60
    endloop
  endfacet
  facet normal 0 1 0
    outer loop
      vertex -20 19.8904 50
      vertex -17.9094 19.8904 60
      vertex -17.9094 19.8904 50
    endloop
  endfacet
  facet normal 0 1 0
    outer loop
      vertex -17.9094 19.8904 60
      vertex -20 19.8904 50
      vertex -22.0906 19.8904 60
    endloop
  endfacet
  facet normal 0 1 0
    outer loop
      vertex -22.0906 19.8904 40
      vertex -20 19.8904 50
      vertex -20 19.8904 40
    endloop
  endfacet
  facet normal 0 1 0
    outer loop
      vertex -20 19.8904 50
      vertex -22.0906 19.8904 40
      vertex -22.0906 19.8904 60
    endloop
  endfacet
  facet normal 0.587784 0.809018 -0
    outer loop
      vertex -6.61739 14.8629 50
      vertex -10 17.3205 60
      vertex -6.61739 14.8629 60
    endloop
  endfacet
  facet normal 0.587784 0.809018 0
    outer loop
      vertex -10 17.3205 60
      vertex -6.61739 14.8629 50
      vertex -10 17.3205 50
    endloop
  endfacet
  facet normal 0.406729 0.913549 -0
    outer loop
      vertex -10 17.3205 50
      vertex -13.8197 19.0211 60
      vertex -10 17.3205 60
    endloop
  endfacet
  facet normal 0.406729 0.913549 0
    outer loop
      vertex -13.8197 19.0211 60
      vertex -10 17.3205 50
      vertex -13.8197 19.0211 50
    endloop
  endfacet
  facet normal -0.743149 0.669126 0
    outer loop
      vertex -36.1803 11.7557 40
      vertex -33.3826 14.8629 60
      vertex -33.3826 14.8629 40
    endloop
  endfacet
  facet normal -0.743149 0.669126 0
    outer loop
      vertex -33.3826 14.8629 60
      vertex -36.1803 11.7557 40
      vertex -36.1803 11.7557 60
    endloop
  endfacet
  facet normal -0.866022 0.500006 0
    outer loop
      vertex -38.2709 8.13473 40
      vertex -36.1803 11.7557 60
      vertex -36.1803 11.7557 40
    endloop
  endfacet
  facet normal -0.866022 0.500006 0
    outer loop
      vertex -36.1803 11.7557 60
      vertex -38.2709 8.13473 40
      vertex -38.2709 8.13473 60
    endloop
  endfacet
  facet normal -0.406729 0.913549 0
    outer loop
      vertex -26.1803 19.0211 40
      vertex -30 17.3205 60
      vertex -26.1803 19.0211 60
    endloop
  endfacet
  facet normal -0.406729 0.913549 0
    outer loop
      vertex -30 17.3205 60
      vertex -26.1803 19.0211 40
      vertex -30 17.3205 40
    endloop
  endfacet
  facet normal 0 0 -1
    outer loop
      vertex -3.81966 -11.7557 40
      vertex -3.09017 -9.51056 40
      vertex -2.58538 -9.61786 40
    endloop
  endfacet
  facet normal 0 0 -1
    outer loop
      vertex -3.81966 -11.7557 40
      vertex -5 -8.66025 40
      vertex -3.09017 -9.51056 40
    endloop
  endfacet
  facet normal 0 0 -1
    outer loop
      vertex -6.61739 -14.8629 40
      vertex -5 -8.66025 40
      vertex -3.81966 -11.7557 40
    endloop
  endfacet
  facet normal 0 0 -1
    outer loop
      vertex -6.61739 -14.8629 40
      vertex -6.69131 -7.43145 40
      vertex -5 -8.66025 40
    endloop
  endfacet
  facet normal 0 0 -1
    outer loop
      vertex -10 -17.3205 40
      vertex -6.69131 -7.43145 40
      vertex -6.61739 -14.8629 40
    endloop
  endfacet
  facet normal -0 0 -1
    outer loop
      vertex -6.69131 -7.43145 40
      vertex -10 -17.3205 40
      vertex -8.09017 -5.87785 40
    endloop
  endfacet
  facet normal 0 0 -1
    outer loop
      vertex -13.8197 -19.0211 40
      vertex -8.09017 -5.87785 40
      vertex -10 -17.3205 40
    endloop
  endfacet
  facet normal -0 0 -1
    outer loop
      vertex -8.09017 -5.87785 40
      vertex -13.8197 -19.0211 40
      vertex -9.13545 -4.06737 40
    endloop
  endfacet
  facet normal 0 0 -1
    outer loop
      vertex -20 0 40
      vertex -9.13545 -4.06737 40
      vertex -13.8197 -19.0211 40
    endloop
  endfacet
  facet normal 0 0 -1
    outer loop
      vertex -9.13545 -4.06737 40
      vertex -20 0 40
      vertex -9.78148 -2.07912 40
    endloop
  endfacet
  facet normal 0 0 -1
    outer loop
      vertex -20 0 40
      vertex -13.8197 -19.0211 40
      vertex -17.9094 -19.8904 40
    endloop
  endfacet
  facet normal 0 0 -1
    outer loop
      vertex -9.78148 -2.07912 40
      vertex -20 0 40
      vertex -10 0 40
    endloop
  endfacet
  facet normal 0 0 -1
    outer loop
      vertex -22.0906 -19.8904 40
      vertex -20 0 40
      vertex -17.9094 -19.8904 40
    endloop
  endfacet
  facet normal 0 0 -1
    outer loop
      vertex -26.1803 -19.0211 40
      vertex -20 0 40
      vertex -22.0906 -19.8904 40
    endloop
  endfacet
  facet normal 0 0 -1
    outer loop
      vertex -30 -17.3205 40
      vertex -20 0 40
      vertex -26.1803 -19.0211 40
    endloop
  endfacet
  facet normal 0 0 -1
    outer loop
      vertex -33.3826 -14.8629 40
      vertex -20 0 40
      vertex -30 -17.3205 40
    endloop
  endfacet
  facet normal 0 0 -1
    outer loop
      vertex -20 0 40
      vertex -22.0906 19.8904 40
      vertex -20 19.8904 40
    endloop
  endfacet
  facet normal 0 -0 -1
    outer loop
      vertex -26.1803 19.0211 40
      vertex -20 0 40
      vertex -30 17.3205 40
    endloop
  endfacet
  facet normal 0 -0 -1
    outer loop
      vertex -22.0906 19.8904 40
      vertex -20 0 40
      vertex -26.1803 19.0211 40
    endloop
  endfacet
  facet normal 0 0 -1
    outer loop
      vertex -36.1803 -11.7557 40
      vertex -20 0 40
      vertex -33.3826 -14.8629 40
    endloop
  endfacet
  facet normal 0 0 -1
    outer loop
      vertex -20 0 40
      vertex -33.3826 14.8629 40
      vertex -30 17.3205 40
    endloop
  endfacet
  facet normal 0 0 -1
    outer loop
      vertex -38.2709 -8.13473 40
      vertex -20 0 40
      vertex -36.1803 -11.7557 40
    endloop
  endfacet
  facet normal 0 0 -1
    outer loop
      vertex -20 0 40
      vertex -36.1803 11.7557 40
      vertex -33.3826 14.8629 40
    endloop
  endfacet
  facet normal 0 0 -1
    outer loop
      vertex -39.563 -4.15823 40
      vertex -20 0 40
      vertex -38.2709 -8.13473 40
    endloop
  endfacet
  facet normal 0 0 -1
    outer loop
      vertex -20 0 40
      vertex -38.2709 8.13473 40
      vertex -36.1803 11.7557 40
    endloop
  endfacet
  facet normal 0 0 -1
    outer loop
      vertex -40 0 40
      vertex -20 0 40
      vertex -39.563 -4.15823 40
    endloop
  endfacet
  facet normal 0 0 -1
    outer loop
      vertex -20 0 40
      vertex -39.563 4.15823 40
      vertex -38.2709 8.13473 40
    endloop
  endfacet
  facet normal 0 0 -1
    outer loop
      vertex -20 0 40
      vertex -40 0 40
      vertex -39.563 4.15823 40
    endloop
  endfacet
  facet normal 0 0 -1
    outer loop
      vertex -2.83684 -7.48013 40
      vertex -0.437048 -4.15823 40
      vertex -1.6143 -7.78146 40
    endloop
  endfacet
  facet normal 0 0 -1
    outer loop
      vertex -4.54452 -6.58387 40
      vertex -0.437048 -4.15823 40
      vertex -2.83684 -7.48013 40
    endloop
  endfacet
  facet normal 0 0 -1
    outer loop
      vertex -5.98809 -5.30498 40
      vertex -0.437048 -4.15823 40
      vertex -4.54452 -6.58387 40
    endloop
  endfacet
  facet normal 0 0 -1
    outer loop
      vertex -7.08365 -3.71778 40
      vertex -0.437048 -4.15823 40
      vertex -5.98809 -5.30498 40
    endloop
  endfacet
  facet normal 0 0 -1
    outer loop
      vertex -0.437048 -4.15823 40
      vertex -7.08365 -3.71778 40
      vertex 0 0 40
    endloop
  endfacet
  facet normal 0 0 -1
    outer loop
      vertex -7.76753 -1.91453 40
      vertex 0 0 40
      vertex -7.08365 -3.71778 40
    endloop
  endfacet
  facet normal -0 0 -1
    outer loop
      vertex 0 0 40
      vertex -7.76753 -1.91453 40
      vertex -8 0 40
    endloop
  endfacet
  facet normal 0.866025 0.5 0
    outer loop
      vertex -1.72909 8.13473 60
      vertex -3.81966 11.7557 50
      vertex -3.81966 11.7557 60
    endloop
  endfacet
  facet normal 0.866025 0.5 0
    outer loop
      vertex -3.81966 11.7557 50
      vertex -1.72909 8.13473 60
      vertex -1.72909 8.13473 50
    endloop
  endfacet
  facet normal 0.951057 0.309017 0
    outer loop
      vertex -0.437048 4.15823 60
      vertex -1.72909 8.13473 50
      vertex -1.72909 8.13473 60
    endloop
  endfacet
  facet normal 0.951057 0.309017 0
    outer loop
      vertex -1.72909 8.13473 50
      vertex -0.437048 4.15823 60
      vertex -0.437048 4.15823 50
    endloop
  endfacet
  facet normal 0.743145 0.66913 0
    outer loop
      vertex -3.81966 11.7557 60
      vertex -6.61739 14.8629 50
      vertex -6.61739 14.8629 60
    endloop
  endfacet
  facet normal 0.743145 0.66913 0
    outer loop
      vertex -6.61739 14.8629 50
      vertex -3.81966 11.7557 60
      vertex -3.81966 11.7557 50
    endloop
  endfacet
  facet normal 0.207913 0.978147 -0
    outer loop
      vertex -13.8197 19.0211 50
      vertex -17.9094 19.8904 60
      vertex -13.8197 19.0211 60
    endloop
  endfacet
  facet normal 0.207913 0.978147 0
    outer loop
      vertex -17.9094 19.8904 60
      vertex -13.8197 19.0211 50
      vertex -17.9094 19.8904 50
    endloop
  endfacet
  facet normal -0.951053 0.309029 0
    outer loop
      vertex -39.563 4.15823 40
      vertex -38.2709 8.13473 60
      vertex -38.2709 8.13473 40
    endloop
  endfacet
  facet normal -0.951053 0.309029 0
    outer loop
      vertex -38.2709 8.13473 60
      vertex -39.563 4.15823 40
      vertex -39.563 4.15823 60
    endloop
  endfacet
  facet normal 0 0 1
    outer loop
      vertex -0.437048 4.15823 60
      vertex -0.437048 -4.15823 60
      vertex 0 0 60
    endloop
  endfacet
  facet normal 0 0 1
    outer loop
      vertex -1.72909 8.13473 60
      vertex -0.437048 -4.15823 60
      vertex -0.437048 4.15823 60
    endloop
  endfacet
  facet normal 0 0 1
    outer loop
      vertex -1.72909 8.13473 60
      vertex -1.72909 -8.13473 60
      vertex -0.437048 -4.15823 60
    endloop
  endfacet
  facet normal 0 0 1
    outer loop
      vertex -3.81966 11.7557 60
      vertex -1.72909 -8.13473 60
      vertex -1.72909 8.13473 60
    endloop
  endfacet
  facet normal 0 0 1
    outer loop
      vertex -3.81966 11.7557 60
      vertex -3.81966 -11.7557 60
      vertex -1.72909 -8.13473 60
    endloop
  endfacet
  facet normal 0 0 1
    outer loop
      vertex -6.61739 14.8629 60
      vertex -3.81966 -11.7557 60
      vertex -3.81966 11.7557 60
    endloop
  endfacet
  facet normal 0 0 1
    outer loop
      vertex -6.61739 14.8629 60
      vertex -6.61739 -14.8629 60
      vertex -3.81966 -11.7557 60
    endloop
  endfacet
  facet normal 0 0 1
    outer loop
      vertex -10 17.3205 60
      vertex -6.61739 -14.8629 60
      vertex -6.61739 14.8629 60
    endloop
  endfacet
  facet normal 0 0 1
    outer loop
      vertex -10 17.3205 60
      vertex -10 -17.3205 60
      vertex -6.61739 -14.8629 60
    endloop
  endfacet
  facet normal 0 0 1
    outer loop
      vertex -13.8197 19.0211 60
      vertex -10 -17.3205 60
      vertex -10 17.3205 60
    endloop
  endfacet
  facet normal 0 0 1
    outer loop
      vertex -13.8197 19.0211 60
      vertex -13.8197 -19.0211 60
      vertex -10 -17.3205 60
    endloop
  endfacet
  facet normal 0 0 1
    outer loop
      vertex -17.9094 19.8904 60
      vertex -13.8197 -19.0211 60
      vertex -13.8197 19.0211 60
    endloop
  endfacet
  facet normal 0 0 1
    outer loop
      vertex -17.9094 19.8904 60
      vertex -17.9094 -19.8904 60
      vertex -13.8197 -19.0211 60
    endloop
  endfacet
  facet normal -0 0 1
    outer loop
      vertex -22.0906 19.8904 60
      vertex -17.9094 -19.8904 60
      vertex -17.9094 19.8904 60
    endloop
  endfacet
  facet normal 0 0 1
    outer loop
      vertex -22.0906 19.8904 60
      vertex -22.0906 -19.8904 60
      vertex -17.9094 -19.8904 60
    endloop
  endfacet
  facet normal -0 0 1
    outer loop
      vertex -26.1803 19.0211 60
      vertex -22.0906 -19.8904 60
      vertex -22.0906 19.8904 60
    endloop
  endfacet
  facet normal 0 0 1
    outer loop
      vertex -26.1803 19.0211 60
      vertex -26.1803 -19.0211 60
      vertex -22.0906 -19.8904 60
    endloop
  endfacet
  facet normal -0 0 1
    outer loop
      vertex -30 17.3205 60
      vertex -26.1803 -19.0211 60
      vertex -26.1803 19.0211 60
    endloop
  endfacet
  facet normal 0 0 1
    outer loop
      vertex -30 17.3205 60
      vertex -30 -17.3205 60
      vertex -26.1803 -19.0211 60
    endloop
  endfacet
  facet normal -0 0 1
    outer loop
      vertex -33.3826 14.8629 60
      vertex -30 -17.3205 60
      vertex -30 17.3205 60
    endloop
  endfacet
  facet normal 0 0 1
    outer loop
      vertex -33.3826 14.8629 60
      vertex -33.3826 -14.8629 60
      vertex -30 -17.3205 60
    endloop
  endfacet
  facet normal -0 0 1
    outer loop
      vertex -36.1803 11.7557 60
      vertex -33.3826 -14.8629 60
      vertex -33.3826 14.8629 60
    endloop
  endfacet
  facet normal 0 0 1
    outer loop
      vertex -36.1803 11.7557 60
      vertex -36.1803 -11.7557 60
      vertex -33.3826 -14.8629 60
    endloop
  endfacet
  facet normal -0 0 1
    outer loop
      vertex -38.2709 8.13473 60
      vertex -36.1803 -11.7557 60
      vertex -36.1803 11.7557 60
    endloop
  endfacet
  facet normal 0 0 1
    outer loop
      vertex -38.2709 8.13473 60
      vertex -38.2709 -8.13473 60
      vertex -36.1803 -11.7557 60
    endloop
  endfacet
  facet normal -0 0 1
    outer loop
      vertex -39.563 4.15823 60
      vertex -38.2709 -8.13473 60
      vertex -38.2709 8.13473 60
    endloop
  endfacet
  facet normal 0 0 1
    outer loop
      vertex -39.563 4.15823 60
      vertex -39.563 -4.15823 60
      vertex -38.2709 -8.13473 60
    endloop
  endfacet
  facet normal 0 -0 1
    outer loop
      vertex -39.563 -4.15823 60
      vertex -39.563 4.15823 60
      vertex -40 0 60
    endloop
  endfacet
  facet normal -0.587785 0.809017 0
    outer loop
      vertex -30 17.3205 40
      vertex -33.3826 14.8629 60
      vertex -30 17.3205 60
    endloop
  endfacet
  facet normal -0.587785 0.809017 0
    outer loop
      vertex -33.3826 14.8629 60
      vertex -30 17.3205 40
      vertex -33.3826 14.8629 40
    endloop
  endfacet
  facet normal -0.207913 0.978147 0
    outer loop
      vertex -22.0906 19.8904 40
      vertex -26.1803 19.0211 60
      vertex -22.0906 19.8904 60
    endloop
  endfacet
  facet normal -0.207913 0.978147 0
    outer loop
      vertex -26.1803 19.0211 60
      vertex -22.0906 19.8904 40
      vertex -26.1803 19.0211 40
    endloop
  endfacet
  facet normal 0.994522 -0.104529 0
    outer loop
      vertex -0.437048 -4.15823 60
      vertex 0 0 50
      vertex 0 0 60
    endloop
  endfacet
  facet normal 0.994522 -0.104529 0
    outer loop
      vertex -0.437048 -4.15823 40
      vertex 0 0 50
      vertex -0.437048 -4.15823 60
    endloop
  endfacet
  facet normal 0.994522 -0.104529 0
    outer loop
      vertex 0 0 50
      vertex -0.437048 -4.15823 40
      vertex 0 0 40
    endloop
  endfacet
  facet normal -0.207913 -0.978147 0
    outer loop
      vertex -26.1803 -19.0211 40
      vertex -22.0906 -19.8904 60
      vertex -26.1803 -19.0211 60
    endloop
  endfacet
  facet normal -0.207913 -0.978147 -0
    outer loop
      vertex -22.0906 -19.8904 60
      vertex -26.1803 -19.0211 40
      vertex -22.0906 -19.8904 40
    endloop
  endfacet
  facet normal 0.207913 -0.978147 0
    outer loop
      vertex -17.9094 -19.8904 40
      vertex -13.8197 -19.0211 60
      vertex -17.9094 -19.8904 60
    endloop
  endfacet
  facet normal 0.207913 -0.978147 0
    outer loop
      vertex -13.8197 -19.0211 60
      vertex -17.9094 -19.8904 40
      vertex -13.8197 -19.0211 40
    endloop
  endfacet
  facet normal 0.743145 -0.66913 0
    outer loop
      vertex -6.61739 -14.8629 60
      vertex -3.81966 -11.7557 40
      vertex -3.81966 -11.7557 60
    endloop
  endfacet
  facet normal 0.743145 -0.66913 0
    outer loop
      vertex -3.81966 -11.7557 40
      vertex -6.61739 -14.8629 60
      vertex -6.61739 -14.8629 40
    endloop
  endfacet
  facet normal 0.951057 -0.309015 0
    outer loop
      vertex -0.437048 -4.15823 60
      vertex -1.6143 -7.78146 50
      vertex -0.437048 -4.15823 40
    endloop
  endfacet
  facet normal 0.951057 -0.309017 5.44293e-07
    outer loop
      vertex -1.72909 -8.13473 60
      vertex -1.6143 -7.78146 50
      vertex -0.437048 -4.15823 60
    endloop
  endfacet
  facet normal 0.951052 -0.309031 0
    outer loop
      vertex -1.6143 -7.78146 50
      vertex -1.72909 -8.13473 60
      vertex -1.72909 -8.13473 50
    endloop
  endfacet
  facet normal 0.951057 -0.309015 0
    outer loop
      vertex -0.437048 -4.15823 40
      vertex -1.6143 -7.78146 50
      vertex -1.6143 -7.78146 40
    endloop
  endfacet
  facet normal 0.866024 -0.500002 0
    outer loop
      vertex -1.72909 -8.13473 60
      vertex -2.58538 -9.61786 50
      vertex -1.72909 -8.13473 50
    endloop
  endfacet
  facet normal 0.866025 -0.5 -3.18507e-07
    outer loop
      vertex -3.81966 -11.7557 60
      vertex -2.58538 -9.61786 50
      vertex -1.72909 -8.13473 60
    endloop
  endfacet
  facet normal 0.866026 -0.499999 0
    outer loop
      vertex -3.81966 -11.7557 40
      vertex -2.58538 -9.61786 50
      vertex -3.81966 -11.7557 60
    endloop
  endfacet
  facet normal 0.866026 -0.499999 0
    outer loop
      vertex -2.58538 -9.61786 50
      vertex -3.81966 -11.7557 40
      vertex -2.58538 -9.61786 40
    endloop
  endfacet
  facet normal -0.866022 -0.500006 0
    outer loop
      vertex -36.1803 -11.7557 40
      vertex -38.2709 -8.13473 60
      vertex -38.2709 -8.13473 40
    endloop
  endfacet
  facet normal -0.866022 -0.500006 0
    outer loop
      vertex -38.2709 -8.13473 60
      vertex -36.1803 -11.7557 40
      vertex -36.1803 -11.7557 60
    endloop
  endfacet
  facet normal -0.994523 -0.104517 0
    outer loop
      vertex -39.563 -4.15823 40
      vertex -40 0 60
      vertex -40 0 40
    endloop
  endfacet
  facet normal -0.994523 -0.104517 0
    outer loop
      vertex -40 0 60
      vertex -39.563 -4.15823 40
      vertex -39.563 -4.15823 60
    endloop
  endfacet
  facet normal -0.951053 -0.309029 0
    outer loop
      vertex -38.2709 -8.13473 40
      vertex -39.563 -4.15823 60
      vertex -39.563 -4.15823 40
    endloop
  endfacet
  facet normal -0.951053 -0.309029 0
    outer loop
      vertex -39.563 -4.15823 60
      vertex -38.2709 -8.13473 40
      vertex -38.2709 -8.13473 60
    endloop
  endfacet
  facet normal 0.587784 -0.809018 0
    outer loop
      vertex -10 -17.3205 40
      vertex -6.61739 -14.8629 60
      vertex -10 -17.3205 60
    endloop
  endfacet
  facet normal 0.587784 -0.809018 0
    outer loop
      vertex -6.61739 -14.8629 60
      vertex -10 -17.3205 40
      vertex -6.61739 -14.8629 40
    endloop
  endfacet
  facet normal 0.406729 -0.913549 0
    outer loop
      vertex -13.8197 -19.0211 40
      vertex -10 -17.3205 60
      vertex -13.8197 -19.0211 60
    endloop
  endfacet
  facet normal 0.406729 -0.913549 0
    outer loop
      vertex -10 -17.3205 60
      vertex -13.8197 -19.0211 40
      vertex -10 -17.3205 40
    endloop
  endfacet
  facet normal 0 -1 0
    outer loop
      vertex -22.0906 -19.8904 40
      vertex -17.9094 -19.8904 60
      vertex -22.0906 -19.8904 60
    endloop
  endfacet
  facet normal 0 -1 -0
    outer loop
      vertex -17.9094 -19.8904 60
      vertex -22.0906 -19.8904 40
      vertex -17.9094 -19.8904 40
    endloop
  endfacet
  facet normal -0.406729 -0.913549 0
    outer loop
      vertex -30 -17.3205 40
      vertex -26.1803 -19.0211 60
      vertex -30 -17.3205 60
    endloop
  endfacet
  facet normal -0.406729 -0.913549 -0
    outer loop
      vertex -26.1803 -19.0211 60
      vertex -30 -17.3205 40
      vertex -26.1803 -19.0211 40
    endloop
  endfacet
  facet normal -0.743149 -0.669126 0
    outer loop
      vertex -33.3826 -14.8629 40
      vertex -36.1803 -11.7557 60
      vertex -36.1803 -11.7557 40
    endloop
  endfacet
  facet normal -0.743149 -0.669126 0
    outer loop
      vertex -36.1803 -11.7557 60
      vertex -33.3826 -14.8629 40
      vertex -33.3826 -14.8629 60
    endloop
  endfacet
  facet normal -0.587785 -0.809017 0
    outer loop
      vertex -33.3826 -14.8629 40
      vertex -30 -17.3205 60
      vertex -33.3826 -14.8629 60
    endloop
  endfacet
  facet normal -0.587785 -0.809017 -0
    outer loop
      vertex -30 -17.3205 60
      vertex -33.3826 -14.8629 40
      vertex -30 -17.3205 40
    endloop
  endfacet
endsolid OpenSCAD_Model
